# xmcd
#
# Track frame offsets: 
#        150
#        9525
#        25670
#        40375
#        62652
#        82272
#        115205
#        134822
#        152532
#        172495
#        193212
#
# Disc length: 3174 seconds
#
# Revision: 1
# Processed by: cddbd v1.5.2PL0 Copyright (c) Steve Scherf et al.
# Submitted via: ExactAudioCopy v1.0b3
#
DISCID=9e0c640b
DTITLE=Ford Blues Band - Hotshots
DYEAR=1994
DGENRE=Blues
TTITLE0=Blues Keeps Comin' Down
TTITLE1=Crazy For My Baby
TTITLE2=Just A Little Bit
TTITLE3=Mendocino Hotshots Blues
TTITLE4=You Upset Me
TTITLE5=I Once Knew A Young Man
TTITLE6=It's Hot
TTITLE7=I Pity The Fool
TTITLE8=Pecos Pete
TTITLE9=Meetin' With Some Lovin'
TTITLE10=Love Me Or Leave Me
EXTD=YEAR: 1995 ID3G: 0
EXTT0=
EXTT1=
EXTT2=
EXTT3=
EXTT4=
EXTT5=
EXTT6=
EXTT7=
EXTT8=
EXTT9=
EXTT10=
PLAYORDER=
